{
	"asset": {
		"generator": "Unity 2020.3.31f1",
		"extras": {
			"exporterVersion" : "2.2.1"
		},
		"version": "2.0"
	},
	"accessors": [
		{
			"bufferView": 2,
			"byteOffset": 0,
			"componentType": 5126,
			"count": 345,
			"max": [ 0.3420681, 0.1590531, 0.1822741 ],
			"min": [ -0.3420681, -0.27289, -0.1822728 ],
			"type": "VEC3"
		},
		{
			"bufferView": 2,
			"byteOffset": 4140,
			"componentType": 5126,
			"count": 345,
			"max": [ 1, 1, 1 ],
			"min": [ -1, -1, -1 ],
			"type": "VEC3"
		},
		{
			"bufferView": 1,
			"byteOffset": 0,
			"componentType": 5126,
			"count": 345,
			"max": [ 0.4278204, 0.9295167 ],
			"min": [ 0.2456481, 0.5755697 ],
			"type": "VEC2"
		},
		{
			"bufferView": 3,
			"byteOffset": 0,
			"componentType": 5126,
			"count": 345,
			"max": [ 1, 1, 1, 1 ],
			"min": [ -1, -1, -1, 1 ],
			"type": "VEC4"
		},
		{
			"bufferView": 0,
			"byteOffset": 0,
			"componentType": 5123,
			"count": 576,
			"max": [ 344 ],
			"min": [ 0 ],
			"type": "SCALAR"
		}
	],
	"buffers": [
		{
			"byteLength": 17712,
			"uri": "entity21210.bin"
		}
	],
	"bufferViews": [
		{
			"buffer": 0,
			"byteLength": 1152,
			"target": 34963,
			"byteOffset": 16560
		},
		{
			"buffer": 0,
			"byteLength": 2760,
			"target": 34962,
			"byteStride": 8,
			"byteOffset": 0
		},
		{
			"buffer": 0,
			"byteLength": 8280,
			"target": 34962,
			"byteStride": 12,
			"byteOffset": 2760
		},
		{
			"buffer": 0,
			"byteLength": 5520,
			"target": 34962,
			"byteStride": 16,
			"byteOffset": 11040
		}
	],
	"images": [
		{
			"uri": "Assets/Decentraland/Sample-01/Gamer/Left_Scn.jpg"
		}
	],
	"materials": [
		{
			"pbrMetallicRoughness": {
				"baseColorTexture" : {
					"index" : 0,
					"texCoord" : 0
				},
				"baseColorFactor": [1, 1, 1, 1],
				"metallicFactor": 0,
				"roughnessFactor": 0.5
			},
			"emissiveFactor": [0, 0, 0],
			"doubleSided": false,
			"name": "New Material"
		}
	],
	"meshes": [
		{
			"name": "mesh_piano_chair_15898piano_chair",
			"primitives": [
				{
					"attributes": {
						"POSITION": 0,
						"NORMAL": 1,
						"TEXCOORD_0": 2,
						"TANGENT": 3
					},
					"indices": 4,
					"material": 0,
					"mode": 4
				}
			]
		}
	],
	"nodes": [
		{
			"name": "UnityGlTF_root",
			"children": [
				1
			]
		},
		{
			"name": "node_piano_chair",
			"mesh": 0,
			"matrix": [1, 0, 0, 0, 0, 1, 0, 0, 0, 0, 1, 0, 0, 0, 0, 1]
		}
	],
	"samplers": [
		{
			"magFilter": 9729,
			"minFilter": 9985,
			"wrapS": 10497,
			"wrapT": 10497
		}
	],
	"scenes": [
		{
			"name":"defaultScene",
			"nodes": [
				0
			]
		}
	],
	"scene": 0,
	"textures": [
		{
			"sampler": 0,
			"source": 0
		}
	]
}