{
	"asset": {
		"generator": "Unity 2020.3.31f1",
		"extras": {
			"exporterVersion" : "2.2.1"
		},
		"version": "2.0"
	},
	"accessors": [
		{
			"bufferView": 2,
			"byteOffset": 0,
			"componentType": 5126,
			"count": 1062,
			"max": [ 0.6175576, 2.376126, 0.4927078 ],
			"min": [ -0.6175576, -1.954585E-08, -0.4927077 ],
			"type": "VEC3"
		},
		{
			"bufferView": 2,
			"byteOffset": 12744,
			"componentType": 5126,
			"count": 1062,
			"max": [ 1, 1, 1 ],
			"min": [ -1, -1, -1 ],
			"type": "VEC3"
		},
		{
			"bufferView": 1,
			"byteOffset": 0,
			"componentType": 5126,
			"count": 1062,
			"max": [ 0.9375, 0.9375 ],
			"min": [ 0.4375, 0.4375 ],
			"type": "VEC2"
		},
		{
			"bufferView": 3,
			"byteOffset": 0,
			"componentType": 5126,
			"count": 1062,
			"max": [ 1, 0, 0, 1 ],
			"min": [ 1, 0, 0, 1 ],
			"type": "VEC4"
		},
		{
			"bufferView": 0,
			"byteOffset": 0,
			"componentType": 5123,
			"count": 2400,
			"max": [ 1061 ],
			"min": [ 0 ],
			"type": "SCALAR"
		},
		{
			"bufferView": 2,
			"byteOffset": 25488,
			"componentType": 5126,
			"count": 324,
			"max": [ 0.007240993, 1.051757, 0.008361515 ],
			"min": [ -0.09728723, -1.051757, -0.9854156 ],
			"type": "VEC3"
		},
		{
			"bufferView": 2,
			"byteOffset": 29376,
			"componentType": 5126,
			"count": 324,
			"max": [ 1, 1, 1 ],
			"min": [ -1, -1, -1 ],
			"type": "VEC3"
		},
		{
			"bufferView": 1,
			"byteOffset": 8496,
			"componentType": 5126,
			"count": 324,
			"max": [ 0.9375, 0.9375 ],
			"min": [ 0.4375, 0.4375 ],
			"type": "VEC2"
		},
		{
			"bufferView": 3,
			"byteOffset": 16992,
			"componentType": 5126,
			"count": 324,
			"max": [ 1, 0, 0, 1 ],
			"min": [ 1, 0, 0, 1 ],
			"type": "VEC4"
		},
		{
			"bufferView": 0,
			"byteOffset": 4800,
			"componentType": 5123,
			"count": 816,
			"max": [ 315 ],
			"min": [ 0 ],
			"type": "SCALAR"
		},
		{
			"bufferView": 0,
			"byteOffset": 6432,
			"componentType": 5123,
			"count": 12,
			"max": [ 323 ],
			"min": [ 316 ],
			"type": "SCALAR"
		}
	],
	"buffers": [
		{
			"byteLength": 72984,
			"uri": "entity21250.bin"
		}
	],
	"bufferViews": [
		{
			"buffer": 0,
			"byteLength": 6456,
			"target": 34963,
			"byteOffset": 66528
		},
		{
			"buffer": 0,
			"byteLength": 11088,
			"target": 34962,
			"byteStride": 8,
			"byteOffset": 0
		},
		{
			"buffer": 0,
			"byteLength": 33264,
			"target": 34962,
			"byteStride": 12,
			"byteOffset": 11088
		},
		{
			"buffer": 0,
			"byteLength": 22176,
			"target": 34962,
			"byteStride": 16,
			"byteOffset": 44352
		}
	],
	"materials": [
		{
			"pbrMetallicRoughness": {
				"baseColorFactor": [0.64, 0.5101318, 0.07149718, 1],
				"metallicFactor": 0,
				"roughnessFactor": 1
			},
			"emissiveFactor": [0, 0, 0],
			"doubleSided": false,
			"name": "Yellow"
		},
		{
			"pbrMetallicRoughness": {
				"baseColorFactor": [0.01520852, 0.01520852, 0.01520852, 1],
				"metallicFactor": 0,
				"roughnessFactor": 1
			},
			"emissiveFactor": [0, 0, 0],
			"doubleSided": false,
			"name": "base"
		},
		{
			"pbrMetallicRoughness": {
				"baseColorFactor": [0.8, 0.8, 0.8, 1],
				"metallicFactor": 0,
				"roughnessFactor": 1
			},
			"emissiveFactor": [0, 0, 0],
			"doubleSided": false,
			"name": "transparency"
		}
	],
	"meshes": [
		{
			"name": "mesh_server_15952server3",
			"primitives": [
				{
					"attributes": {
						"POSITION": 0,
						"NORMAL": 1,
						"TEXCOORD_0": 2,
						"TANGENT": 3
					},
					"indices": 4,
					"material": 0,
					"mode": 4
				}
			]
		},
		{
			"name": "mesh_Cube.074_15958Cube.074",
			"primitives": [
				{
					"attributes": {
						"POSITION": 5,
						"NORMAL": 6,
						"TEXCOORD_0": 7,
						"TANGENT": 8
					},
					"indices": 9,
					"material": 1,
					"mode": 4
				},
				{
					"attributes": {
						"POSITION": 5,
						"NORMAL": 6,
						"TEXCOORD_0": 7,
						"TANGENT": 8
					},
					"indices": 10,
					"material": 2,
					"mode": 4
				}
			]
		}
	],
	"nodes": [
		{
			"name": "UnityGlTF_root",
			"children": [
				1
			]
		},
		{
			"name": "node_server3",
			"mesh": 0,
			"children": [
				2
			],
			"matrix": [1, 0, 0, 0, 0, 1, 0, 0, 0, 0, 1, 0, 0, 0, 0, 1]
		},
		{
			"name": "node_Cube.074",
			"mesh": 1,
			"translation": [ -0.6175578, 1.104587, 0.4927077]
		}
	],
	"scenes": [
		{
			"name":"defaultScene",
			"nodes": [
				0
			]
		}
	],
	"scene": 0
}